<mxfile host="app.diagrams.net" modified="2024-01-15T17:04:41.379Z" agent="Mozilla/5.0 (Macintosh; Intel Mac OS X 10_15_7) AppleWebKit/537.36 (KHTML, like Gecko) Chrome/120.0.0.0 Safari/537.36" etag="CHl8easiuhMjptMNy00A" version="22.1.18" type="github">
  <diagram id="C5RBs43oDa-KdzZeNtuy" name="Page-1">
    <mxGraphModel dx="2868" dy="1640" grid="1" gridSize="10" guides="1" tooltips="1" connect="1" arrows="1" fold="1" page="1" pageScale="1" pageWidth="3300" pageHeight="4681" math="0" shadow="0">
      <root>
        <mxCell id="WIyWlLk6GJQsqaUBKTNV-0" />
        <mxCell id="WIyWlLk6GJQsqaUBKTNV-1" parent="WIyWlLk6GJQsqaUBKTNV-0" />
        <mxCell id="9baERXLPbisSak-D0wPM-4" value="" style="edgeStyle=orthogonalEdgeStyle;rounded=0;orthogonalLoop=1;jettySize=auto;html=1;" edge="1" parent="WIyWlLk6GJQsqaUBKTNV-1" source="WIyWlLk6GJQsqaUBKTNV-3" target="9baERXLPbisSak-D0wPM-3">
          <mxGeometry relative="1" as="geometry" />
        </mxCell>
        <mxCell id="WIyWlLk6GJQsqaUBKTNV-3" value="while(!packagesStack.empty())" style="rounded=1;whiteSpace=wrap;html=1;fontSize=12;glass=0;strokeWidth=1;shadow=0;" parent="WIyWlLk6GJQsqaUBKTNV-1" vertex="1">
          <mxGeometry x="120" y="80" width="320" height="40" as="geometry" />
        </mxCell>
        <mxCell id="9baERXLPbisSak-D0wPM-11" value="" style="edgeStyle=orthogonalEdgeStyle;rounded=0;orthogonalLoop=1;jettySize=auto;html=1;" edge="1" parent="WIyWlLk6GJQsqaUBKTNV-1" source="9baERXLPbisSak-D0wPM-3" target="9baERXLPbisSak-D0wPM-10">
          <mxGeometry relative="1" as="geometry" />
        </mxCell>
        <mxCell id="9baERXLPbisSak-D0wPM-3" value="package = packagesStack.pop()&lt;br&gt;create new delivery with deliveryId&lt;br&gt;add packageId and deliveryId to&lt;br&gt;&amp;nbsp;curDeliveries hashtable with delivery status" style="whiteSpace=wrap;html=1;rounded=1;glass=0;strokeWidth=1;shadow=0;align=center;" vertex="1" parent="WIyWlLk6GJQsqaUBKTNV-1">
          <mxGeometry x="120" y="150" width="320" height="90" as="geometry" />
        </mxCell>
        <mxCell id="9baERXLPbisSak-D0wPM-69" value="" style="edgeStyle=orthogonalEdgeStyle;rounded=0;orthogonalLoop=1;jettySize=auto;html=1;" edge="1" parent="WIyWlLk6GJQsqaUBKTNV-1" source="9baERXLPbisSak-D0wPM-10" target="9baERXLPbisSak-D0wPM-68">
          <mxGeometry relative="1" as="geometry" />
        </mxCell>
        <mxCell id="9baERXLPbisSak-D0wPM-10" value="Send an API call to the Delivery&lt;br&gt;&amp;nbsp;Management Module with package details.&amp;nbsp;" style="whiteSpace=wrap;html=1;rounded=1;glass=0;strokeWidth=1;shadow=0;" vertex="1" parent="WIyWlLk6GJQsqaUBKTNV-1">
          <mxGeometry x="120" y="280" width="320" height="60" as="geometry" />
        </mxCell>
        <mxCell id="9baERXLPbisSak-D0wPM-12" value="" style="swimlane;startSize=0;dashed=1;" vertex="1" parent="WIyWlLk6GJQsqaUBKTNV-1">
          <mxGeometry x="80" y="40" width="980" height="810" as="geometry">
            <mxRectangle x="80" y="40" width="50" height="40" as="alternateBounds" />
          </mxGeometry>
        </mxCell>
        <mxCell id="9baERXLPbisSak-D0wPM-71" value="" style="edgeStyle=orthogonalEdgeStyle;rounded=0;orthogonalLoop=1;jettySize=auto;html=1;" edge="1" parent="9baERXLPbisSak-D0wPM-12" source="9baERXLPbisSak-D0wPM-68" target="9baERXLPbisSak-D0wPM-70">
          <mxGeometry relative="1" as="geometry" />
        </mxCell>
        <mxCell id="9baERXLPbisSak-D0wPM-72" value="Yes" style="edgeLabel;html=1;align=center;verticalAlign=middle;resizable=0;points=[];" vertex="1" connectable="0" parent="9baERXLPbisSak-D0wPM-71">
          <mxGeometry x="-0.1556" y="1" relative="1" as="geometry">
            <mxPoint as="offset" />
          </mxGeometry>
        </mxCell>
        <mxCell id="9baERXLPbisSak-D0wPM-84" style="edgeStyle=orthogonalEdgeStyle;rounded=0;orthogonalLoop=1;jettySize=auto;html=1;exitX=0;exitY=0.5;exitDx=0;exitDy=0;" edge="1" parent="9baERXLPbisSak-D0wPM-12" source="9baERXLPbisSak-D0wPM-68">
          <mxGeometry relative="1" as="geometry">
            <mxPoint x="200" y="370" as="targetPoint" />
            <Array as="points">
              <mxPoint x="50" y="420" />
              <mxPoint x="50" y="360" />
              <mxPoint x="201" y="360" />
            </Array>
          </mxGeometry>
        </mxCell>
        <mxCell id="9baERXLPbisSak-D0wPM-85" value="No" style="edgeLabel;html=1;align=center;verticalAlign=middle;resizable=0;points=[];" vertex="1" connectable="0" parent="9baERXLPbisSak-D0wPM-84">
          <mxGeometry x="-0.3643" y="1" relative="1" as="geometry">
            <mxPoint as="offset" />
          </mxGeometry>
        </mxCell>
        <mxCell id="9baERXLPbisSak-D0wPM-68" value="is order complete?" style="rhombus;whiteSpace=wrap;html=1;rounded=1;glass=0;strokeWidth=1;shadow=0;" vertex="1" parent="9baERXLPbisSak-D0wPM-12">
          <mxGeometry x="105" y="380" width="190" height="80" as="geometry" />
        </mxCell>
        <mxCell id="9baERXLPbisSak-D0wPM-74" value="" style="edgeStyle=orthogonalEdgeStyle;rounded=0;orthogonalLoop=1;jettySize=auto;html=1;" edge="1" parent="9baERXLPbisSak-D0wPM-12" source="9baERXLPbisSak-D0wPM-70" target="9baERXLPbisSak-D0wPM-73">
          <mxGeometry relative="1" as="geometry" />
        </mxCell>
        <mxCell id="9baERXLPbisSak-D0wPM-70" value="Trigger notification module" style="whiteSpace=wrap;html=1;rounded=1;glass=0;strokeWidth=1;shadow=0;" vertex="1" parent="9baERXLPbisSak-D0wPM-12">
          <mxGeometry x="40" y="550" width="320" height="60" as="geometry" />
        </mxCell>
        <mxCell id="9baERXLPbisSak-D0wPM-73" value="Remove entry from hashtable" style="whiteSpace=wrap;html=1;rounded=1;glass=0;strokeWidth=1;shadow=0;" vertex="1" parent="9baERXLPbisSak-D0wPM-12">
          <mxGeometry x="40" y="690" width="320" height="60" as="geometry" />
        </mxCell>
        <mxCell id="9baERXLPbisSak-D0wPM-92" value="" style="edgeStyle=orthogonalEdgeStyle;rounded=0;orthogonalLoop=1;jettySize=auto;html=1;" edge="1" parent="9baERXLPbisSak-D0wPM-12" source="9baERXLPbisSak-D0wPM-90" target="9baERXLPbisSak-D0wPM-91">
          <mxGeometry relative="1" as="geometry" />
        </mxCell>
        <mxCell id="9baERXLPbisSak-D0wPM-90" value="1" style="ellipse;whiteSpace=wrap;html=1;rounded=1;glass=0;strokeWidth=1;shadow=0;" vertex="1" parent="9baERXLPbisSak-D0wPM-12">
          <mxGeometry x="500" y="210" width="80" height="80" as="geometry" />
        </mxCell>
        <mxCell id="9baERXLPbisSak-D0wPM-93" style="edgeStyle=orthogonalEdgeStyle;rounded=0;orthogonalLoop=1;jettySize=auto;html=1;exitX=0;exitY=0.5;exitDx=0;exitDy=0;" edge="1" parent="9baERXLPbisSak-D0wPM-12" source="9baERXLPbisSak-D0wPM-91" target="9baERXLPbisSak-D0wPM-68">
          <mxGeometry relative="1" as="geometry" />
        </mxCell>
        <mxCell id="9baERXLPbisSak-D0wPM-91" value="Update hashtable entry status" style="whiteSpace=wrap;html=1;rounded=1;glass=0;strokeWidth=1;shadow=0;" vertex="1" parent="9baERXLPbisSak-D0wPM-12">
          <mxGeometry x="400" y="390" width="280" height="60" as="geometry" />
        </mxCell>
        <mxCell id="9baERXLPbisSak-D0wPM-15" value="" style="edgeStyle=orthogonalEdgeStyle;rounded=0;orthogonalLoop=1;jettySize=auto;html=1;entryX=0.5;entryY=0;entryDx=0;entryDy=0;" edge="1" parent="WIyWlLk6GJQsqaUBKTNV-1" source="9baERXLPbisSak-D0wPM-13" target="9baERXLPbisSak-D0wPM-26">
          <mxGeometry relative="1" as="geometry">
            <mxPoint x="330" y="1550" as="targetPoint" />
          </mxGeometry>
        </mxCell>
        <mxCell id="9baERXLPbisSak-D0wPM-13" value="Start Delivery procedure&amp;nbsp;" style="whiteSpace=wrap;html=1;rounded=1;glass=0;strokeWidth=1;shadow=0;" vertex="1" parent="WIyWlLk6GJQsqaUBKTNV-1">
          <mxGeometry x="170" y="1310" width="320" height="60" as="geometry" />
        </mxCell>
        <mxCell id="9baERXLPbisSak-D0wPM-21" value="" style="edgeStyle=orthogonalEdgeStyle;rounded=0;orthogonalLoop=1;jettySize=auto;html=1;" edge="1" parent="WIyWlLk6GJQsqaUBKTNV-1" source="9baERXLPbisSak-D0wPM-18" target="9baERXLPbisSak-D0wPM-20">
          <mxGeometry relative="1" as="geometry" />
        </mxCell>
        <mxCell id="9baERXLPbisSak-D0wPM-24" value="Yes" style="edgeLabel;html=1;align=center;verticalAlign=middle;resizable=0;points=[];" vertex="1" connectable="0" parent="9baERXLPbisSak-D0wPM-21">
          <mxGeometry x="-0.32" y="-2" relative="1" as="geometry">
            <mxPoint as="offset" />
          </mxGeometry>
        </mxCell>
        <mxCell id="9baERXLPbisSak-D0wPM-23" value="" style="edgeStyle=orthogonalEdgeStyle;rounded=0;orthogonalLoop=1;jettySize=auto;html=1;" edge="1" parent="WIyWlLk6GJQsqaUBKTNV-1" source="9baERXLPbisSak-D0wPM-18" target="9baERXLPbisSak-D0wPM-22">
          <mxGeometry relative="1" as="geometry" />
        </mxCell>
        <mxCell id="9baERXLPbisSak-D0wPM-25" value="No" style="edgeLabel;html=1;align=center;verticalAlign=middle;resizable=0;points=[];" vertex="1" connectable="0" parent="9baERXLPbisSak-D0wPM-23">
          <mxGeometry x="-0.22" y="-1" relative="1" as="geometry">
            <mxPoint as="offset" />
          </mxGeometry>
        </mxCell>
        <mxCell id="9baERXLPbisSak-D0wPM-18" value="assign&amp;nbsp;&lt;br&gt;autonomous?" style="rhombus;whiteSpace=wrap;html=1;rounded=1;glass=0;strokeWidth=1;shadow=0;" vertex="1" parent="WIyWlLk6GJQsqaUBKTNV-1">
          <mxGeometry x="250" y="1540" width="160" height="80" as="geometry" />
        </mxCell>
        <mxCell id="9baERXLPbisSak-D0wPM-32" value="" style="edgeStyle=orthogonalEdgeStyle;rounded=0;orthogonalLoop=1;jettySize=auto;html=1;" edge="1" parent="WIyWlLk6GJQsqaUBKTNV-1" source="9baERXLPbisSak-D0wPM-20" target="9baERXLPbisSak-D0wPM-31">
          <mxGeometry relative="1" as="geometry" />
        </mxCell>
        <mxCell id="9baERXLPbisSak-D0wPM-20" value="Send API call to the fleet&lt;br&gt;&amp;nbsp;Management module with endpoints and&amp;nbsp;&lt;br&gt;package details" style="whiteSpace=wrap;html=1;rounded=1;glass=0;strokeWidth=1;shadow=0;" vertex="1" parent="WIyWlLk6GJQsqaUBKTNV-1">
          <mxGeometry x="170" y="1710" width="320" height="80" as="geometry" />
        </mxCell>
        <mxCell id="9baERXLPbisSak-D0wPM-42" value="" style="edgeStyle=orthogonalEdgeStyle;rounded=0;orthogonalLoop=1;jettySize=auto;html=1;" edge="1" parent="WIyWlLk6GJQsqaUBKTNV-1" source="9baERXLPbisSak-D0wPM-22" target="9baERXLPbisSak-D0wPM-41">
          <mxGeometry relative="1" as="geometry" />
        </mxCell>
        <mxCell id="9baERXLPbisSak-D0wPM-22" value="Assign a delivery partner" style="whiteSpace=wrap;html=1;rounded=1;glass=0;strokeWidth=1;shadow=0;" vertex="1" parent="WIyWlLk6GJQsqaUBKTNV-1">
          <mxGeometry x="690" y="1550" width="280" height="60" as="geometry" />
        </mxCell>
        <mxCell id="9baERXLPbisSak-D0wPM-29" style="edgeStyle=orthogonalEdgeStyle;rounded=0;orthogonalLoop=1;jettySize=auto;html=1;exitX=0.5;exitY=1;exitDx=0;exitDy=0;entryX=0.5;entryY=0;entryDx=0;entryDy=0;" edge="1" parent="WIyWlLk6GJQsqaUBKTNV-1" source="9baERXLPbisSak-D0wPM-26" target="9baERXLPbisSak-D0wPM-18">
          <mxGeometry relative="1" as="geometry" />
        </mxCell>
        <mxCell id="9baERXLPbisSak-D0wPM-26" value="Create endpoints for delivery." style="whiteSpace=wrap;html=1;rounded=1;glass=0;strokeWidth=1;shadow=0;" vertex="1" parent="WIyWlLk6GJQsqaUBKTNV-1">
          <mxGeometry x="170" y="1430" width="320" height="60" as="geometry" />
        </mxCell>
        <mxCell id="9baERXLPbisSak-D0wPM-28" value="&lt;meta charset=&quot;utf-8&quot;&gt;&lt;span style=&quot;color: rgb(0, 0, 0); font-family: Helvetica; font-size: 12px; font-style: normal; font-variant-ligatures: normal; font-variant-caps: normal; font-weight: 400; letter-spacing: normal; orphans: 2; text-align: center; text-indent: 0px; text-transform: none; widows: 2; word-spacing: 0px; -webkit-text-stroke-width: 0px; background-color: rgb(251, 251, 251); text-decoration-thickness: initial; text-decoration-style: initial; text-decoration-color: initial; float: none; display: inline !important;&quot;&gt;Assign autonomous or human delivery&lt;/span&gt;&lt;br style=&quot;border-color: var(--border-color); color: rgb(0, 0, 0); font-family: Helvetica; font-size: 12px; font-style: normal; font-variant-ligatures: normal; font-variant-caps: normal; font-weight: 400; letter-spacing: normal; orphans: 2; text-align: center; text-indent: 0px; text-transform: none; widows: 2; word-spacing: 0px; -webkit-text-stroke-width: 0px; background-color: rgb(251, 251, 251); text-decoration-thickness: initial; text-decoration-style: initial; text-decoration-color: initial;&quot;&gt;&lt;span style=&quot;color: rgb(0, 0, 0); font-family: Helvetica; font-size: 12px; font-style: normal; font-variant-ligatures: normal; font-variant-caps: normal; font-weight: 400; letter-spacing: normal; orphans: 2; text-align: center; text-indent: 0px; text-transform: none; widows: 2; word-spacing: 0px; -webkit-text-stroke-width: 0px; background-color: rgb(251, 251, 251); text-decoration-thickness: initial; text-decoration-style: initial; text-decoration-color: initial; float: none; display: inline !important;&quot;&gt;based on package details, availability&amp;nbsp;&lt;/span&gt;&lt;br style=&quot;border-color: var(--border-color); color: rgb(0, 0, 0); font-family: Helvetica; font-size: 12px; font-style: normal; font-variant-ligatures: normal; font-variant-caps: normal; font-weight: 400; letter-spacing: normal; orphans: 2; text-align: center; text-indent: 0px; text-transform: none; widows: 2; word-spacing: 0px; -webkit-text-stroke-width: 0px; background-color: rgb(251, 251, 251); text-decoration-thickness: initial; text-decoration-style: initial; text-decoration-color: initial;&quot;&gt;&lt;span style=&quot;color: rgb(0, 0, 0); font-family: Helvetica; font-size: 12px; font-style: normal; font-variant-ligatures: normal; font-variant-caps: normal; font-weight: 400; letter-spacing: normal; orphans: 2; text-align: center; text-indent: 0px; text-transform: none; widows: 2; word-spacing: 0px; -webkit-text-stroke-width: 0px; background-color: rgb(251, 251, 251); text-decoration-thickness: initial; text-decoration-style: initial; text-decoration-color: initial; float: none; display: inline !important;&quot;&gt;and location.&lt;/span&gt;" style="shape=note;whiteSpace=wrap;html=1;backgroundOutline=1;fontColor=#000000;darkOpacity=0.05;fillColor=#FFF9B2;strokeColor=none;fillStyle=solid;direction=west;gradientDirection=north;gradientColor=#FFF2A1;shadow=1;size=20;pointerEvents=1;" vertex="1" parent="WIyWlLk6GJQsqaUBKTNV-1">
          <mxGeometry x="100" y="1520" width="140" height="160" as="geometry" />
        </mxCell>
        <mxCell id="9baERXLPbisSak-D0wPM-34" value="" style="edgeStyle=orthogonalEdgeStyle;rounded=0;orthogonalLoop=1;jettySize=auto;html=1;" edge="1" parent="WIyWlLk6GJQsqaUBKTNV-1" source="9baERXLPbisSak-D0wPM-31" target="9baERXLPbisSak-D0wPM-33">
          <mxGeometry relative="1" as="geometry" />
        </mxCell>
        <mxCell id="9baERXLPbisSak-D0wPM-31" value="Assign an autonomous vehicle" style="whiteSpace=wrap;html=1;rounded=1;glass=0;strokeWidth=1;shadow=0;" vertex="1" parent="WIyWlLk6GJQsqaUBKTNV-1">
          <mxGeometry x="170" y="1880" width="320" height="60" as="geometry" />
        </mxCell>
        <mxCell id="9baERXLPbisSak-D0wPM-40" value="" style="edgeStyle=orthogonalEdgeStyle;rounded=0;orthogonalLoop=1;jettySize=auto;html=1;" edge="1" parent="WIyWlLk6GJQsqaUBKTNV-1" source="9baERXLPbisSak-D0wPM-33" target="9baERXLPbisSak-D0wPM-39">
          <mxGeometry relative="1" as="geometry" />
        </mxCell>
        <mxCell id="9baERXLPbisSak-D0wPM-33" value="create an entry in the&amp;nbsp;&lt;br&gt;hash table for the current deliveryId and vehicleId with status" style="whiteSpace=wrap;html=1;rounded=1;glass=0;strokeWidth=1;shadow=0;" vertex="1" parent="WIyWlLk6GJQsqaUBKTNV-1">
          <mxGeometry x="170" y="2020" width="320" height="60" as="geometry" />
        </mxCell>
        <mxCell id="9baERXLPbisSak-D0wPM-54" value="" style="edgeStyle=orthogonalEdgeStyle;rounded=0;orthogonalLoop=1;jettySize=auto;html=1;" edge="1" parent="WIyWlLk6GJQsqaUBKTNV-1" source="9baERXLPbisSak-D0wPM-39" target="9baERXLPbisSak-D0wPM-53">
          <mxGeometry relative="1" as="geometry" />
        </mxCell>
        <mxCell id="9baERXLPbisSak-D0wPM-39" value="Trigger notification module by sending deliveryId" style="whiteSpace=wrap;html=1;rounded=1;glass=0;strokeWidth=1;shadow=0;" vertex="1" parent="WIyWlLk6GJQsqaUBKTNV-1">
          <mxGeometry x="170" y="2160" width="320" height="60" as="geometry" />
        </mxCell>
        <mxCell id="9baERXLPbisSak-D0wPM-44" value="" style="edgeStyle=orthogonalEdgeStyle;rounded=0;orthogonalLoop=1;jettySize=auto;html=1;entryX=1;entryY=0.5;entryDx=0;entryDy=0;" edge="1" parent="WIyWlLk6GJQsqaUBKTNV-1" source="9baERXLPbisSak-D0wPM-41" target="9baERXLPbisSak-D0wPM-39">
          <mxGeometry relative="1" as="geometry">
            <mxPoint x="830" y="1830" as="targetPoint" />
          </mxGeometry>
        </mxCell>
        <mxCell id="9baERXLPbisSak-D0wPM-41" value="Create an entry in a&lt;br&gt;hash table with deliveryId, partnerId and status" style="whiteSpace=wrap;html=1;rounded=1;glass=0;strokeWidth=1;shadow=0;" vertex="1" parent="WIyWlLk6GJQsqaUBKTNV-1">
          <mxGeometry x="690" y="1690" width="280" height="60" as="geometry" />
        </mxCell>
        <mxCell id="9baERXLPbisSak-D0wPM-56" value="" style="edgeStyle=orthogonalEdgeStyle;rounded=0;orthogonalLoop=1;jettySize=auto;html=1;" edge="1" parent="WIyWlLk6GJQsqaUBKTNV-1" source="9baERXLPbisSak-D0wPM-53" target="9baERXLPbisSak-D0wPM-55">
          <mxGeometry relative="1" as="geometry" />
        </mxCell>
        <mxCell id="9baERXLPbisSak-D0wPM-57" value="Yes" style="edgeLabel;html=1;align=center;verticalAlign=middle;resizable=0;points=[];" vertex="1" connectable="0" parent="9baERXLPbisSak-D0wPM-56">
          <mxGeometry x="-0.3111" y="-1" relative="1" as="geometry">
            <mxPoint as="offset" />
          </mxGeometry>
        </mxCell>
        <mxCell id="9baERXLPbisSak-D0wPM-59" value="" style="edgeStyle=orthogonalEdgeStyle;rounded=0;orthogonalLoop=1;jettySize=auto;html=1;" edge="1" parent="WIyWlLk6GJQsqaUBKTNV-1" source="9baERXLPbisSak-D0wPM-53" target="9baERXLPbisSak-D0wPM-58">
          <mxGeometry relative="1" as="geometry" />
        </mxCell>
        <mxCell id="9baERXLPbisSak-D0wPM-63" value="No" style="edgeLabel;html=1;align=center;verticalAlign=middle;resizable=0;points=[];" vertex="1" connectable="0" parent="9baERXLPbisSak-D0wPM-59">
          <mxGeometry x="-0.1321" y="-2" relative="1" as="geometry">
            <mxPoint as="offset" />
          </mxGeometry>
        </mxCell>
        <mxCell id="9baERXLPbisSak-D0wPM-53" value="delivery complete?" style="rhombus;whiteSpace=wrap;html=1;rounded=1;glass=0;strokeWidth=1;shadow=0;" vertex="1" parent="WIyWlLk6GJQsqaUBKTNV-1">
          <mxGeometry x="235" y="2290" width="190" height="80" as="geometry" />
        </mxCell>
        <mxCell id="9baERXLPbisSak-D0wPM-67" value="" style="edgeStyle=orthogonalEdgeStyle;rounded=0;orthogonalLoop=1;jettySize=auto;html=1;" edge="1" parent="WIyWlLk6GJQsqaUBKTNV-1" source="9baERXLPbisSak-D0wPM-55" target="9baERXLPbisSak-D0wPM-66">
          <mxGeometry relative="1" as="geometry" />
        </mxCell>
        <mxCell id="9baERXLPbisSak-D0wPM-55" value="Send API call to update order status" style="whiteSpace=wrap;html=1;rounded=1;glass=0;strokeWidth=1;shadow=0;" vertex="1" parent="WIyWlLk6GJQsqaUBKTNV-1">
          <mxGeometry x="170" y="2460" width="320" height="60" as="geometry" />
        </mxCell>
        <mxCell id="9baERXLPbisSak-D0wPM-61" value="" style="edgeStyle=orthogonalEdgeStyle;rounded=0;orthogonalLoop=1;jettySize=auto;html=1;" edge="1" parent="WIyWlLk6GJQsqaUBKTNV-1" source="9baERXLPbisSak-D0wPM-58" target="9baERXLPbisSak-D0wPM-60">
          <mxGeometry relative="1" as="geometry" />
        </mxCell>
        <mxCell id="9baERXLPbisSak-D0wPM-62" value="Yes" style="edgeLabel;html=1;align=center;verticalAlign=middle;resizable=0;points=[];" vertex="1" connectable="0" parent="9baERXLPbisSak-D0wPM-61">
          <mxGeometry x="-0.2444" relative="1" as="geometry">
            <mxPoint as="offset" />
          </mxGeometry>
        </mxCell>
        <mxCell id="9baERXLPbisSak-D0wPM-64" style="edgeStyle=orthogonalEdgeStyle;rounded=0;orthogonalLoop=1;jettySize=auto;html=1;exitX=1;exitY=0.5;exitDx=0;exitDy=0;entryX=0.5;entryY=0;entryDx=0;entryDy=0;" edge="1" parent="WIyWlLk6GJQsqaUBKTNV-1" source="9baERXLPbisSak-D0wPM-58" target="9baERXLPbisSak-D0wPM-53">
          <mxGeometry relative="1" as="geometry">
            <Array as="points">
              <mxPoint x="900" y="2330" />
              <mxPoint x="900" y="2270" />
              <mxPoint x="330" y="2270" />
            </Array>
          </mxGeometry>
        </mxCell>
        <mxCell id="9baERXLPbisSak-D0wPM-65" value="No" style="edgeLabel;html=1;align=center;verticalAlign=middle;resizable=0;points=[];" vertex="1" connectable="0" parent="9baERXLPbisSak-D0wPM-64">
          <mxGeometry x="-0.7392" relative="1" as="geometry">
            <mxPoint as="offset" />
          </mxGeometry>
        </mxCell>
        <mxCell id="9baERXLPbisSak-D0wPM-58" value="issue occurred?" style="rhombus;whiteSpace=wrap;html=1;rounded=1;glass=0;strokeWidth=1;shadow=0;" vertex="1" parent="WIyWlLk6GJQsqaUBKTNV-1">
          <mxGeometry x="690" y="2290" width="190" height="80" as="geometry" />
        </mxCell>
        <mxCell id="9baERXLPbisSak-D0wPM-78" value="" style="edgeStyle=orthogonalEdgeStyle;rounded=0;orthogonalLoop=1;jettySize=auto;html=1;" edge="1" parent="WIyWlLk6GJQsqaUBKTNV-1" source="9baERXLPbisSak-D0wPM-60" target="9baERXLPbisSak-D0wPM-77">
          <mxGeometry relative="1" as="geometry" />
        </mxCell>
        <mxCell id="9baERXLPbisSak-D0wPM-60" value="Send API call to Issue Resolver" style="whiteSpace=wrap;html=1;rounded=1;glass=0;strokeWidth=1;shadow=0;" vertex="1" parent="WIyWlLk6GJQsqaUBKTNV-1">
          <mxGeometry x="625" y="2460" width="320" height="60" as="geometry" />
        </mxCell>
        <mxCell id="9baERXLPbisSak-D0wPM-66" value="1" style="ellipse;whiteSpace=wrap;html=1;rounded=1;glass=0;strokeWidth=1;shadow=0;" vertex="1" parent="WIyWlLk6GJQsqaUBKTNV-1">
          <mxGeometry x="290" y="2590" width="80" height="80" as="geometry" />
        </mxCell>
        <mxCell id="9baERXLPbisSak-D0wPM-77" value="2" style="ellipse;whiteSpace=wrap;html=1;rounded=1;glass=0;strokeWidth=1;shadow=0;" vertex="1" parent="WIyWlLk6GJQsqaUBKTNV-1">
          <mxGeometry x="745" y="2590" width="80" height="80" as="geometry" />
        </mxCell>
      </root>
    </mxGraphModel>
  </diagram>
</mxfile>
